Coordinates
version=1
nRows=19
nColumns=33
inDegrees=yes

Units are S.I. units (second, meters, Newtons, ...)
Angles are in degrees.

endheader
time	ground_thorax_rot_x	ground_thorax_rot_y	ground_thorax_rot_z	ground_thorax_tx	ground_thorax_ty	ground_thorax_tz	clav_prot_r	clav_elev_r	scapula_abduction_r	scapula_elevation_r	scapula_upward_rot_r	scapula_winging_r	shoulder_elv_r	plane_of_elev_r	axial_rot_r	elbow_flexion_r	pro_sup_r	wrist_flex_r	wrist_dev_r	clav_prot_l	clav_elev_l	scapula_abduction_l	scapula_elevation_l	scapula_upward_rot_l	scapula_winging_l	shoulder_elv_l	plane_of_elev_l	axial_rot_l	elbow_flexion_l	pro_sup_l	wrist_flex_l	wrist_dev_l	
1.8200	38.989622	11.544039	12.072579	-234.771169	816.884524	5.029820	15.653371	37.867096	38.341946	45.000000	-45.000000	2072.498737	-1909.216320	149.086705	-111.613229	744.664000	159.865623	13.464519	5.293044	9.928929	-45.000000	-36.390545	45.000000	-44.999992	-1700.714915	-1727.163478	23.045372	-18.527939	1443.916901	-338.640002	10.522414	-22.448285	
1.8300	38.884391	11.566195	12.264904	-234.476958	816.202353	5.031877	15.643248	37.866124	38.278544	45.000000	-45.000000	2072.607393	-1909.210740	149.155395	-111.585593	744.704890	159.755444	13.493415	5.285885	9.927872	-45.000000	-36.357114	45.000000	-44.999985	-1700.765499	-1727.148774	23.020193	-18.694539	1443.977914	-338.014383	10.284431	-22.483449	
1.8400	38.785775	11.565063	12.449257	-234.128115	815.542929	5.039949	15.630002	37.872535	38.209068	45.000000	-45.000000	2072.724077	-1909.186732	149.226750	-111.547996	744.775016	159.640854	13.522537	5.272261	9.908033	-45.000000	-36.338703	45.000000	-44.999974	-1700.816876	-1727.142329	22.993812	-18.839802	1444.054732	-337.401439	10.046498	-22.520439	
1.8500	38.694168	11.536985	12.623783	-233.649939	814.926765	5.061490	15.636524	37.878021	38.182460	45.000000	-45.000000	2072.805100	-1909.191321	149.278678	-111.508423	744.815544	159.523480	13.540140	5.275208	9.909026	-45.000000	-36.321594	45.000000	-44.999953	-1700.895046	-1727.121752	22.989678	-18.937826	1444.132670	-336.835873	9.813598	-22.561882	
1.8600	38.611683	11.480136	12.791938	-233.050054	814.361554	5.095637	15.654609	37.882379	38.185459	45.000000	-45.000000	2072.854998	-1909.206080	149.310828	-111.468961	744.847617	159.401733	13.548844	5.288612	9.909967	-45.000000	-36.304894	45.000000	-44.999915	-1700.992857	-1727.092829	23.005809	-18.990381	1444.214976	-336.305465	9.583911	-22.607906	
1.8700	38.538193	11.392793	12.955992	-232.328677	813.856048	5.141689	15.682865	37.892600	38.218022	45.000000	-45.000000	2072.885921	-1909.218260	149.333517	-111.426023	744.873002	159.273616	13.549594	5.306591	9.905835	-45.000000	-36.284423	45.000000	-44.999848	-1701.110911	-1727.051323	23.040884	-18.992477	1444.302295	-335.807043	9.355691	-22.659077	
1.8800	38.474102	11.282609	13.120361	-231.509617	813.413469	5.195849	15.717916	37.897744	38.272087	45.000000	-45.000000	2072.885500	-1909.229721	149.334067	-111.389209	744.891887	159.141643	13.542566	5.331136	9.894256	-45.000000	-36.261214	45.000000	-44.999728	-1701.240099	-1727.003858	23.095062	-18.949711	1444.388706	-335.327798	9.129485	-22.715010	
1.8900	38.415682	11.156062	13.284689	-230.626741	813.032958	5.252497	15.750570	37.912264	38.334445	45.000000	-45.000000	2072.884502	-1909.220622	149.335591	-111.353334	744.912139	159.006159	13.530921	5.350943	9.876568	-45.000000	-36.246665	45.000000	-44.999513	-1701.370958	-1726.952915	23.161198	-18.865437	1444.475609	-334.855588	8.903755	-22.774707	
1.9000	38.362090	11.023371	13.445459	-229.711634	812.711523	5.305535	15.780087	37.915535	38.400525	45.000000	-45.000000	2072.860141	-1909.211645	149.316293	-111.333526	744.925834	158.874418	13.513532	5.373222	9.867089	-45.000000	-36.250675	45.000000	-44.999127	-1701.495333	-1726.907707	23.240596	-18.749324	1444.552938	-334.381238	8.682989	-22.836630	
1.9100	38.309086	10.890878	13.598792	-228.792058	812.445448	5.349026	15.799285	37.927747	38.457295	45.000000	-45.000000	2072.845079	-1909.189586	149.300510	-111.326569	744.938913	158.749599	13.493174	5.388770	9.873197	-45.000000	-36.286543	45.000000	-44.998437	-1701.605611	-1726.868449	23.325470	-18.605826	1444.622799	-333.899879	8.468114	-22.898555	
1.9200	38.261267	10.760200	13.736854	-227.889737	812.231621	5.377918	15.808277	37.928173	38.516499	45.000000	-45.000000	2072.820627	-1909.172604	149.281526	-111.344619	744.950437	158.640043	13.470133	5.402477	9.903664	-45.000000	-36.359202	45.000000	-44.997198	-1701.699046	-1726.843597	23.409046	-18.450375	1444.683277	-333.414456	8.264791	-22.959108	
1.9300	38.217384	10.633757	13.855512	-227.018750	812.068299	5.388667	15.804489	37.943341	38.563682	45.000000	-44.999999	2072.814343	-1909.142721	149.270626	-111.387416	744.963334	158.549759	13.446980	5.408440	9.952374	-45.000000	-36.463794	45.000000	-44.994988	-1701.773926	-1726.824277	23.486570	-18.297463	1444.739989	-332.930003	8.074939	-23.016004	
1.9400	38.185936	10.506706	13.946005	-226.184314	811.955344	5.379672	15.798173	37.946492	38.616851	45.000000	-44.999999	2072.801564	-1909.116671	149.254726	-111.465169	744.976747	158.485098	13.424016	5.411147	10.016047	-45.000000	-36.589023	45.000000	-44.991004	-1701.839715	-1726.812569	23.550639	-18.172190	1444.796010	-332.462171	7.903051	-23.068553	
1.9500	38.165200	10.385759	14.013798	-225.382677	811.893811	5.351182	15.791176	37.966292	38.651987	45.000000	-44.999998	2072.799080	-1909.077716	149.228113	-111.581554	744.985837	158.448021	13.402954	5.409844	10.079231	-45.000000	-36.710273	45.000000	-44.983936	-1701.897852	-1726.793362	23.603839	-18.095182	1444.857534	-332.026034	7.748887	-23.113605	
1.9600	38.162304	10.262790	14.056242	-224.602430	811.885492	5.305061	15.789959	37.974985	38.695888	45.000000	-44.999996	2072.792014	-1909.039906	149.192607	-111.742894	744.989134	158.440026	13.384134	5.406198	10.137225	-45.000000	-36.815096	45.000000	-44.971082	-1701.957659	-1726.766478	23.637310	-18.089259	1444.932642	-331.643718	7.612317	-23.150892	
1.9700	38.171690	10.148228	14.080635	-223.826341	811.932133	5.244208	15.788434	37.994989	38.724825	45.000000	-44.999993	2072.792356	-1908.991352	149.143850	-111.954406	744.988454	158.460025	13.366530	5.402057	10.179793	-45.000000	-36.904275	45.000000	-44.948597	-1702.016324	-1726.724135	23.653854	-18.163592	1445.031178	-331.328692	7.490921	-23.178694	
1.9800	38.196656	10.035422	14.087500	-223.034421	812.035304	5.172202	15.787739	37.995652	38.761502	45.000000	-44.999987	2072.792430	-1908.940771	149.089226	-112.216445	744.984085	158.507005	13.350133	5.397119	10.216902	-45.000000	-36.978192	45.000000	-44.914509	-1702.081597	-1726.671110	23.651160	-18.321245	1445.150628	-331.095710	7.382110	-23.195720	
1.9900	38.226490	9.942951	14.090822	-222.205778	812.195485	5.092782	15.772012	38.001189	38.777558	45.000000	-44.999976	2072.805684	-1908.872163	149.030007	-112.530519	744.980226	158.582109	13.332600	5.395669	10.240314	-45.000000	-37.052628	45.000000	-44.864632	-1702.148176	-1726.602104	23.631611	-18.547840	1445.295480	-330.948846	7.283982	-23.201787	
2.0000	38.262394	9.855348	14.086313	-221.320818	812.412238	5.009753	15.739466	37.987856	38.810538	45.000000	-44.999957	2072.827173	-1908.799889	148.984481	-112.889652	744.977823	158.688829	13.314630	5.394921	10.267801	-45.000000	-37.135645	45.000000	-44.786791	-1702.213204	-1726.529728	23.601955	-18.825962	1445.454152	-330.889183	7.193795	-23.195471	
